G75*
%MOIN*%
%OFA0B0*%
%FSLAX24Y24*%
%IPPOS*%
%LPD*%
%AMOC8*
5,1,8,0,0,1.08239X$1,22.5*
%
%ADD10OC8,0.0610*%
%ADD11C,0.0560*%
%ADD12C,0.0520*%
%ADD13OC8,0.0520*%
%ADD14C,0.0120*%
%ADD15C,0.0160*%
%ADD16C,0.0436*%
D10*
X011400Y018325D03*
X012400Y018325D03*
X013400Y018325D03*
X013400Y019325D03*
X012400Y019325D03*
X011400Y019325D03*
D11*
X003540Y018275D02*
X003260Y018275D01*
X003260Y017275D02*
X003540Y017275D01*
X003540Y016275D02*
X003260Y016275D01*
X003260Y015275D02*
X003540Y015275D01*
X003540Y014275D02*
X003260Y014275D01*
X003260Y013275D02*
X003540Y013275D01*
X003540Y012275D02*
X003260Y012275D01*
X003260Y011275D02*
X003540Y011275D01*
X022260Y013275D02*
X022540Y013275D01*
X022540Y014275D02*
X022260Y014275D01*
X022260Y015275D02*
X022540Y015275D01*
X022540Y016275D02*
X022260Y016275D01*
X022260Y017275D02*
X022540Y017275D01*
X022540Y018275D02*
X022260Y018275D01*
D12*
X009435Y018605D02*
X009435Y018865D01*
X008450Y018865D02*
X008450Y018605D01*
X007466Y018605D02*
X007466Y018865D01*
D13*
X016235Y017545D03*
X017235Y017545D03*
X018985Y017545D03*
X019985Y017545D03*
D14*
X020000Y017560D01*
X020000Y018575D01*
X019750Y018825D01*
X011650Y018825D01*
X011400Y019075D01*
X011400Y019325D01*
D15*
X002781Y010606D02*
X002758Y010616D01*
X002741Y010633D01*
X002731Y010656D01*
X002730Y010669D01*
X002730Y018538D01*
X004137Y019945D01*
X021263Y019945D01*
X022120Y019088D01*
X022213Y018995D01*
X022334Y018945D01*
X023006Y018945D01*
X023019Y018944D01*
X023042Y018934D01*
X023059Y018917D01*
X023069Y018894D01*
X023070Y018881D01*
X023070Y012669D01*
X023069Y012656D01*
X023059Y012633D01*
X023042Y012616D01*
X023019Y012606D01*
X023006Y012605D01*
X011984Y012605D01*
X011863Y012555D01*
X011770Y012462D01*
X009913Y010605D01*
X002794Y010605D01*
X002781Y010606D01*
X002747Y010628D02*
X009936Y010628D01*
X010094Y010786D02*
X002730Y010786D01*
X002730Y010945D02*
X002940Y010945D01*
X002999Y010885D02*
X003168Y010815D01*
X003631Y010815D01*
X003801Y010885D01*
X003930Y011014D01*
X003930Y011015D01*
X004452Y011015D01*
X004547Y011055D01*
X004620Y011128D01*
X004770Y011278D01*
X004810Y011373D01*
X004810Y018367D01*
X004958Y018515D01*
X006402Y018515D01*
X006497Y018555D01*
X006570Y018628D01*
X006970Y019028D01*
X006974Y019037D01*
X006976Y019037D01*
X007088Y019149D01*
X007148Y019296D01*
X007148Y019454D01*
X007088Y019601D01*
X006976Y019713D01*
X006829Y019773D01*
X006671Y019773D01*
X006524Y019713D01*
X006412Y019601D01*
X006352Y019454D01*
X006352Y019296D01*
X006396Y019189D01*
X006242Y019035D01*
X004798Y019035D01*
X004703Y018995D01*
X004598Y018891D01*
X004598Y019004D01*
X004538Y019151D01*
X004426Y019263D01*
X004279Y019323D01*
X004121Y019323D01*
X003974Y019263D01*
X003862Y019151D01*
X003802Y019004D01*
X003802Y018846D01*
X003862Y018699D01*
X003940Y018622D01*
X003940Y018511D01*
X003930Y018536D01*
X003801Y018665D01*
X003631Y018735D01*
X003168Y018735D01*
X002999Y018665D01*
X002870Y018536D01*
X002800Y018366D01*
X002800Y018183D01*
X002870Y018014D01*
X002999Y017885D01*
X003168Y017815D01*
X003631Y017815D01*
X003801Y017885D01*
X003930Y018014D01*
X003940Y018039D01*
X003940Y017511D01*
X003930Y017536D01*
X003801Y017665D01*
X003631Y017735D01*
X003168Y017735D01*
X002999Y017665D01*
X002870Y017536D01*
X002800Y017366D01*
X002800Y017183D01*
X002870Y017014D01*
X002999Y016885D01*
X003168Y016815D01*
X003631Y016815D01*
X003801Y016885D01*
X003930Y017014D01*
X003940Y017039D01*
X003940Y016511D01*
X003930Y016536D01*
X003801Y016665D01*
X003631Y016735D01*
X003168Y016735D01*
X002999Y016665D01*
X002870Y016536D01*
X002800Y016366D01*
X002800Y016183D01*
X002870Y016014D01*
X002999Y015885D01*
X003168Y015815D01*
X003631Y015815D01*
X003801Y015885D01*
X003930Y016014D01*
X003940Y016039D01*
X003940Y015511D01*
X003930Y015536D01*
X003801Y015665D01*
X003631Y015735D01*
X003168Y015735D01*
X002999Y015665D01*
X002870Y015536D01*
X002800Y015366D01*
X002800Y015183D01*
X002870Y015014D01*
X002999Y014885D01*
X003168Y014815D01*
X003631Y014815D01*
X003801Y014885D01*
X003930Y015014D01*
X003940Y015039D01*
X003940Y014511D01*
X003930Y014536D01*
X003801Y014665D01*
X003631Y014735D01*
X003168Y014735D01*
X002999Y014665D01*
X002870Y014536D01*
X002800Y014366D01*
X002800Y014183D01*
X002870Y014014D01*
X002999Y013885D01*
X003168Y013815D01*
X003631Y013815D01*
X003801Y013885D01*
X003930Y014014D01*
X003940Y014039D01*
X003940Y013511D01*
X003930Y013536D01*
X003801Y013665D01*
X003631Y013735D01*
X003168Y013735D01*
X002999Y013665D01*
X002870Y013536D01*
X002800Y013366D01*
X002800Y013183D01*
X002870Y013014D01*
X002999Y012885D01*
X003168Y012815D01*
X003631Y012815D01*
X003801Y012885D01*
X003930Y013014D01*
X003940Y013039D01*
X003940Y012583D01*
X003911Y012554D01*
X003801Y012665D01*
X003631Y012735D01*
X003168Y012735D01*
X002999Y012665D01*
X002870Y012536D01*
X002800Y012366D01*
X002800Y012183D01*
X002870Y012014D01*
X002999Y011885D01*
X003168Y011815D01*
X003631Y011815D01*
X003801Y011885D01*
X003930Y012014D01*
X003930Y012015D01*
X004052Y012015D01*
X004147Y012055D01*
X004220Y012128D01*
X004290Y012197D01*
X004290Y011535D01*
X003930Y011535D01*
X003930Y011536D01*
X003801Y011665D01*
X003631Y011735D01*
X003168Y011735D01*
X002999Y011665D01*
X002870Y011536D01*
X002800Y011366D01*
X002800Y011183D01*
X002870Y011014D01*
X002999Y010885D01*
X002833Y011103D02*
X002730Y011103D01*
X002730Y011262D02*
X002800Y011262D01*
X002822Y011420D02*
X002730Y011420D01*
X002730Y011579D02*
X002913Y011579D01*
X002730Y011737D02*
X004290Y011737D01*
X004290Y011579D02*
X003887Y011579D01*
X003400Y011275D02*
X004400Y011275D01*
X004550Y011425D01*
X004550Y018475D01*
X004850Y018775D01*
X006350Y018775D01*
X006750Y019175D01*
X006750Y019375D01*
X007128Y019504D02*
X010915Y019504D01*
X010915Y019526D02*
X010915Y019124D01*
X011199Y018840D01*
X011296Y018840D01*
X011325Y018810D01*
X011199Y018810D01*
X010915Y018526D01*
X010915Y018124D01*
X011199Y017840D01*
X011601Y017840D01*
X011885Y018124D01*
X011885Y018526D01*
X011826Y018585D01*
X011974Y018585D01*
X011915Y018526D01*
X011915Y018124D01*
X012199Y017840D01*
X012601Y017840D01*
X012885Y018124D01*
X012885Y018526D01*
X012826Y018585D01*
X012974Y018585D01*
X012915Y018526D01*
X012915Y018124D01*
X013199Y017840D01*
X013601Y017840D01*
X013885Y018124D01*
X013885Y018526D01*
X013826Y018585D01*
X019651Y018585D01*
X019760Y018476D01*
X019760Y017942D01*
X019545Y017727D01*
X019545Y017363D01*
X019803Y017105D01*
X020167Y017105D01*
X020425Y017363D01*
X020425Y017727D01*
X020240Y017912D01*
X020240Y018623D01*
X020203Y018711D01*
X022111Y018711D01*
X022168Y018735D02*
X021999Y018665D01*
X021870Y018536D01*
X021800Y018366D01*
X021800Y018183D01*
X021870Y018014D01*
X021999Y017885D01*
X022168Y017815D01*
X022631Y017815D01*
X022801Y017885D01*
X022930Y018014D01*
X023000Y018183D01*
X023000Y018366D01*
X022930Y018536D01*
X022801Y018665D01*
X022631Y018735D01*
X022168Y018735D01*
X021887Y018553D02*
X020240Y018553D01*
X020240Y018394D02*
X021811Y018394D01*
X021800Y018236D02*
X020240Y018236D01*
X020240Y018077D02*
X021844Y018077D01*
X021966Y017919D02*
X020240Y017919D01*
X020392Y017760D02*
X023070Y017760D01*
X023070Y017602D02*
X022864Y017602D01*
X022801Y017665D02*
X022631Y017735D01*
X022168Y017735D01*
X021999Y017665D01*
X021870Y017536D01*
X021800Y017366D01*
X021800Y017183D01*
X021870Y017014D01*
X021999Y016885D01*
X022168Y016815D01*
X022631Y016815D01*
X022801Y016885D01*
X022930Y017014D01*
X023000Y017183D01*
X023000Y017366D01*
X022930Y017536D01*
X022801Y017665D01*
X022834Y017919D02*
X023070Y017919D01*
X023070Y018077D02*
X022956Y018077D01*
X023000Y018236D02*
X023070Y018236D01*
X023070Y018394D02*
X022989Y018394D01*
X022913Y018553D02*
X023070Y018553D01*
X023070Y018711D02*
X022689Y018711D01*
X023070Y018870D02*
X020045Y018870D01*
X020136Y018778D02*
X019886Y019028D01*
X022180Y019028D01*
X022120Y019088D02*
X022120Y019088D01*
X022022Y019187D02*
X013885Y019187D01*
X013885Y019124D02*
X013885Y019311D01*
X013414Y019311D01*
X013414Y019339D01*
X013386Y019339D01*
X013386Y019810D01*
X013199Y019810D01*
X012915Y019526D01*
X012915Y019339D01*
X013386Y019339D01*
X013386Y019311D01*
X012915Y019311D01*
X012915Y019124D01*
X012974Y019065D01*
X012826Y019065D01*
X012885Y019124D01*
X012885Y019526D01*
X012601Y019810D01*
X012199Y019810D01*
X011915Y019526D01*
X011915Y019124D01*
X011974Y019065D01*
X011826Y019065D01*
X011885Y019124D01*
X011885Y019526D01*
X011601Y019810D01*
X011199Y019810D01*
X010915Y019526D01*
X010915Y019345D02*
X007148Y019345D01*
X007217Y019238D02*
X007093Y019115D01*
X007026Y018953D01*
X007026Y018518D01*
X007093Y018356D01*
X007217Y018232D01*
X007379Y018165D01*
X007554Y018165D01*
X007715Y018232D01*
X007839Y018356D01*
X007906Y018518D01*
X007906Y018953D01*
X007839Y019115D01*
X007715Y019238D01*
X007554Y019305D01*
X007379Y019305D01*
X007217Y019238D01*
X007165Y019187D02*
X007103Y019187D01*
X007057Y019028D02*
X006971Y019028D01*
X007026Y018870D02*
X006812Y018870D01*
X006654Y018711D02*
X007026Y018711D01*
X007026Y018553D02*
X006492Y018553D01*
X007078Y018394D02*
X004837Y018394D01*
X004810Y018236D02*
X007214Y018236D01*
X007719Y018236D02*
X008211Y018236D01*
X008220Y018229D02*
X008282Y018198D01*
X008347Y018176D01*
X008416Y018165D01*
X008450Y018165D01*
X008450Y018735D01*
X008010Y018735D01*
X008010Y018571D01*
X008021Y018502D01*
X008043Y018437D01*
X008074Y018375D01*
X008115Y018319D01*
X008164Y018270D01*
X008220Y018229D01*
X008064Y018394D02*
X007855Y018394D01*
X007906Y018553D02*
X008013Y018553D01*
X008010Y018711D02*
X007906Y018711D01*
X008010Y018735D02*
X008450Y018735D01*
X008450Y018735D01*
X008450Y018735D01*
X008450Y018165D01*
X008485Y018165D01*
X008554Y018176D01*
X008619Y018198D01*
X008681Y018229D01*
X008737Y018270D01*
X008786Y018319D01*
X008827Y018375D01*
X008858Y018437D01*
X008880Y018502D01*
X008890Y018571D01*
X008890Y018735D01*
X008450Y018735D01*
X008450Y019305D01*
X008416Y019305D01*
X008347Y019295D01*
X008282Y019273D01*
X008220Y019242D01*
X008164Y019201D01*
X008115Y019152D01*
X008074Y019096D01*
X008043Y019034D01*
X008021Y018969D01*
X008010Y018900D01*
X008010Y018735D01*
X008010Y018870D02*
X007906Y018870D01*
X007875Y019028D02*
X008041Y019028D01*
X008149Y019187D02*
X007767Y019187D01*
X008450Y019187D02*
X008450Y019187D01*
X008450Y019305D02*
X008450Y018735D01*
X008450Y018735D01*
X008450Y018735D01*
X008890Y018735D01*
X008890Y018900D01*
X008880Y018969D01*
X008858Y019034D01*
X008827Y019096D01*
X008786Y019152D01*
X008737Y019201D01*
X008681Y019242D01*
X008619Y019273D01*
X008554Y019295D01*
X008485Y019305D01*
X008450Y019305D01*
X008450Y019028D02*
X008450Y019028D01*
X008450Y018870D02*
X008450Y018870D01*
X008450Y018711D02*
X008450Y018711D01*
X008450Y018553D02*
X008450Y018553D01*
X008450Y018394D02*
X008450Y018394D01*
X008450Y018236D02*
X008450Y018236D01*
X008690Y018236D02*
X009182Y018236D01*
X009185Y018232D02*
X009347Y018165D01*
X009522Y018165D01*
X009684Y018232D01*
X009808Y018356D01*
X009875Y018518D01*
X009875Y018953D01*
X009808Y019115D01*
X009684Y019238D01*
X009522Y019305D01*
X009347Y019305D01*
X009185Y019238D01*
X009062Y019115D01*
X008995Y018953D01*
X008995Y018518D01*
X009062Y018356D01*
X009185Y018232D01*
X009046Y018394D02*
X008837Y018394D01*
X008888Y018553D02*
X008995Y018553D01*
X008995Y018711D02*
X008890Y018711D01*
X008890Y018870D02*
X008995Y018870D01*
X009026Y019028D02*
X008860Y019028D01*
X008752Y019187D02*
X009134Y019187D01*
X009736Y019187D02*
X010915Y019187D01*
X011011Y019028D02*
X009844Y019028D01*
X009875Y018870D02*
X011169Y018870D01*
X011100Y018711D02*
X009875Y018711D01*
X009875Y018553D02*
X010941Y018553D01*
X010915Y018394D02*
X009823Y018394D01*
X009687Y018236D02*
X010915Y018236D01*
X010962Y018077D02*
X004810Y018077D01*
X004810Y017919D02*
X011120Y017919D01*
X011680Y017919D02*
X012120Y017919D01*
X011962Y018077D02*
X011838Y018077D01*
X011885Y018236D02*
X011915Y018236D01*
X011915Y018394D02*
X011885Y018394D01*
X011859Y018553D02*
X011941Y018553D01*
X011915Y019187D02*
X011885Y019187D01*
X011885Y019345D02*
X011915Y019345D01*
X011915Y019504D02*
X011885Y019504D01*
X011749Y019662D02*
X012051Y019662D01*
X012749Y019662D02*
X013051Y019662D01*
X012915Y019504D02*
X012885Y019504D01*
X012885Y019345D02*
X012915Y019345D01*
X012915Y019187D02*
X012885Y019187D01*
X013386Y019345D02*
X013414Y019345D01*
X013414Y019339D02*
X013414Y019810D01*
X013601Y019810D01*
X013885Y019526D01*
X013885Y019339D01*
X013414Y019339D01*
X013414Y019504D02*
X013386Y019504D01*
X013386Y019662D02*
X013414Y019662D01*
X013749Y019662D02*
X021546Y019662D01*
X021388Y019821D02*
X004012Y019821D01*
X003854Y019662D02*
X006474Y019662D01*
X006372Y019504D02*
X003695Y019504D01*
X003537Y019345D02*
X006352Y019345D01*
X006394Y019187D02*
X004501Y019187D01*
X004588Y019028D02*
X004781Y019028D01*
X004200Y018925D02*
X004200Y012475D01*
X004000Y012275D01*
X003400Y012275D01*
X003055Y012688D02*
X002730Y012688D01*
X002730Y012530D02*
X002868Y012530D01*
X002802Y012371D02*
X002730Y012371D01*
X002730Y012213D02*
X002800Y012213D01*
X002854Y012054D02*
X002730Y012054D01*
X002730Y011896D02*
X002989Y011896D01*
X003811Y011896D02*
X004290Y011896D01*
X004290Y012054D02*
X004146Y012054D01*
X004220Y012128D02*
X004220Y012128D01*
X004810Y012054D02*
X011362Y012054D01*
X011204Y011896D02*
X004810Y011896D01*
X004810Y011737D02*
X011045Y011737D01*
X010887Y011579D02*
X004810Y011579D01*
X004810Y011420D02*
X010728Y011420D01*
X010570Y011262D02*
X004754Y011262D01*
X004596Y011103D02*
X010411Y011103D01*
X010253Y010945D02*
X003860Y010945D01*
X004810Y012213D02*
X011521Y012213D01*
X011679Y012371D02*
X004810Y012371D01*
X004810Y012530D02*
X011838Y012530D01*
X016053Y017105D02*
X016417Y017105D01*
X016675Y017363D01*
X016675Y017727D01*
X016417Y017985D01*
X016053Y017985D01*
X015795Y017727D01*
X015795Y017363D01*
X016053Y017105D01*
X016032Y017126D02*
X004810Y017126D01*
X004810Y016968D02*
X021917Y016968D01*
X021824Y017126D02*
X020188Y017126D01*
X020347Y017285D02*
X021800Y017285D01*
X021832Y017443D02*
X020425Y017443D01*
X020425Y017602D02*
X021936Y017602D01*
X022968Y017443D02*
X023070Y017443D01*
X023070Y017285D02*
X023000Y017285D01*
X022976Y017126D02*
X023070Y017126D01*
X023070Y016968D02*
X022883Y016968D01*
X023070Y016809D02*
X004810Y016809D01*
X004810Y016651D02*
X021985Y016651D01*
X021999Y016665D02*
X021870Y016536D01*
X021800Y016366D01*
X021800Y016183D01*
X021870Y016014D01*
X021999Y015885D01*
X022168Y015815D01*
X022631Y015815D01*
X022801Y015885D01*
X022930Y016014D01*
X023000Y016183D01*
X023000Y016366D01*
X022930Y016536D01*
X022801Y016665D01*
X022631Y016735D01*
X022168Y016735D01*
X021999Y016665D01*
X021852Y016492D02*
X004810Y016492D01*
X004810Y016334D02*
X021800Y016334D01*
X021804Y016175D02*
X004810Y016175D01*
X004810Y016017D02*
X021869Y016017D01*
X022065Y015858D02*
X004810Y015858D01*
X004810Y015700D02*
X022083Y015700D01*
X022168Y015735D02*
X021999Y015665D01*
X021870Y015536D01*
X021800Y015366D01*
X021800Y015183D01*
X021870Y015014D01*
X021999Y014885D01*
X022168Y014815D01*
X022631Y014815D01*
X022801Y014885D01*
X022930Y015014D01*
X023000Y015183D01*
X023000Y015366D01*
X022930Y015536D01*
X022801Y015665D01*
X022631Y015735D01*
X022168Y015735D01*
X021875Y015541D02*
X004810Y015541D01*
X004810Y015383D02*
X021807Y015383D01*
X021800Y015224D02*
X004810Y015224D01*
X004810Y015066D02*
X021849Y015066D01*
X021977Y014907D02*
X004810Y014907D01*
X004810Y014749D02*
X023070Y014749D01*
X023070Y014907D02*
X022823Y014907D01*
X022951Y015066D02*
X023070Y015066D01*
X023070Y015224D02*
X023000Y015224D01*
X022993Y015383D02*
X023070Y015383D01*
X023070Y015541D02*
X022925Y015541D01*
X023070Y015700D02*
X022717Y015700D01*
X022735Y015858D02*
X023070Y015858D01*
X023070Y016017D02*
X022931Y016017D01*
X022996Y016175D02*
X023070Y016175D01*
X023070Y016334D02*
X023000Y016334D01*
X022948Y016492D02*
X023070Y016492D01*
X023070Y016651D02*
X022815Y016651D01*
X022631Y014735D02*
X022168Y014735D01*
X021999Y014665D01*
X021870Y014536D01*
X021800Y014366D01*
X021800Y014183D01*
X021870Y014014D01*
X021999Y013885D01*
X022168Y013815D01*
X022631Y013815D01*
X022801Y013885D01*
X022930Y014014D01*
X023000Y014183D01*
X023000Y014366D01*
X022930Y014536D01*
X022801Y014665D01*
X022631Y014735D01*
X022876Y014590D02*
X023070Y014590D01*
X023070Y014432D02*
X022973Y014432D01*
X023000Y014273D02*
X023070Y014273D01*
X023070Y014115D02*
X022971Y014115D01*
X022872Y013956D02*
X023070Y013956D01*
X023070Y013798D02*
X004810Y013798D01*
X004810Y013956D02*
X021928Y013956D01*
X021829Y014115D02*
X004810Y014115D01*
X004810Y014273D02*
X021800Y014273D01*
X021827Y014432D02*
X004810Y014432D01*
X004810Y014590D02*
X021924Y014590D01*
X022168Y013735D02*
X021999Y013665D01*
X021870Y013536D01*
X021800Y013366D01*
X021800Y013183D01*
X021870Y013014D01*
X021999Y012885D01*
X022168Y012815D01*
X022631Y012815D01*
X022801Y012885D01*
X022930Y013014D01*
X023000Y013183D01*
X023000Y013366D01*
X022930Y013536D01*
X022801Y013665D01*
X022631Y013735D01*
X022168Y013735D01*
X021973Y013639D02*
X004810Y013639D01*
X004810Y013481D02*
X021847Y013481D01*
X021800Y013322D02*
X004810Y013322D01*
X004810Y013164D02*
X021808Y013164D01*
X021879Y013005D02*
X004810Y013005D01*
X004810Y012847D02*
X022092Y012847D01*
X022708Y012847D02*
X023070Y012847D01*
X023070Y013005D02*
X022921Y013005D01*
X022992Y013164D02*
X023070Y013164D01*
X023070Y013322D02*
X023000Y013322D01*
X022953Y013481D02*
X023070Y013481D01*
X023070Y013639D02*
X022827Y013639D01*
X023070Y012688D02*
X004810Y012688D01*
X003940Y012688D02*
X003745Y012688D01*
X003708Y012847D02*
X003940Y012847D01*
X003940Y013005D02*
X003921Y013005D01*
X003940Y013639D02*
X003827Y013639D01*
X003940Y013798D02*
X002730Y013798D01*
X002730Y013956D02*
X002928Y013956D01*
X002829Y014115D02*
X002730Y014115D01*
X002730Y014273D02*
X002800Y014273D01*
X002827Y014432D02*
X002730Y014432D01*
X002730Y014590D02*
X002924Y014590D01*
X002730Y014749D02*
X003940Y014749D01*
X003940Y014907D02*
X003823Y014907D01*
X003876Y014590D02*
X003940Y014590D01*
X003940Y013956D02*
X003872Y013956D01*
X002973Y013639D02*
X002730Y013639D01*
X002730Y013481D02*
X002847Y013481D01*
X002800Y013322D02*
X002730Y013322D01*
X002730Y013164D02*
X002808Y013164D01*
X002879Y013005D02*
X002730Y013005D01*
X002730Y012847D02*
X003092Y012847D01*
X002977Y014907D02*
X002730Y014907D01*
X002730Y015066D02*
X002849Y015066D01*
X002800Y015224D02*
X002730Y015224D01*
X002730Y015383D02*
X002807Y015383D01*
X002875Y015541D02*
X002730Y015541D01*
X002730Y015700D02*
X003083Y015700D01*
X003065Y015858D02*
X002730Y015858D01*
X002730Y016017D02*
X002869Y016017D01*
X002804Y016175D02*
X002730Y016175D01*
X002730Y016334D02*
X002800Y016334D01*
X002852Y016492D02*
X002730Y016492D01*
X002730Y016651D02*
X002985Y016651D01*
X002730Y016809D02*
X003940Y016809D01*
X003940Y016651D02*
X003815Y016651D01*
X003883Y016968D02*
X003940Y016968D01*
X004810Y017285D02*
X015873Y017285D01*
X015795Y017443D02*
X004810Y017443D01*
X004810Y017602D02*
X015795Y017602D01*
X015828Y017760D02*
X004810Y017760D01*
X003940Y017760D02*
X002730Y017760D01*
X002730Y017602D02*
X002936Y017602D01*
X002832Y017443D02*
X002730Y017443D01*
X002730Y017285D02*
X002800Y017285D01*
X002824Y017126D02*
X002730Y017126D01*
X002730Y016968D02*
X002917Y016968D01*
X003864Y017602D02*
X003940Y017602D01*
X003940Y017919D02*
X003834Y017919D01*
X003913Y018553D02*
X003940Y018553D01*
X003858Y018711D02*
X003689Y018711D01*
X003802Y018870D02*
X003061Y018870D01*
X003111Y018711D02*
X002903Y018711D01*
X002887Y018553D02*
X002744Y018553D01*
X002730Y018394D02*
X002811Y018394D01*
X002800Y018236D02*
X002730Y018236D01*
X002730Y018077D02*
X002844Y018077D01*
X002730Y017919D02*
X002966Y017919D01*
X003220Y019028D02*
X003812Y019028D01*
X003899Y019187D02*
X003378Y019187D01*
X007026Y019662D02*
X011051Y019662D01*
X012859Y018553D02*
X012941Y018553D01*
X012915Y018394D02*
X012885Y018394D01*
X012885Y018236D02*
X012915Y018236D01*
X012962Y018077D02*
X012838Y018077D01*
X012680Y017919D02*
X013120Y017919D01*
X013680Y017919D02*
X015986Y017919D01*
X016484Y017919D02*
X016986Y017919D01*
X017053Y017985D02*
X016795Y017727D01*
X016795Y017363D01*
X017053Y017105D01*
X017417Y017105D01*
X017597Y017285D01*
X018623Y017285D01*
X018803Y017105D01*
X019167Y017105D01*
X019425Y017363D01*
X019425Y017727D01*
X019167Y017985D01*
X018803Y017985D01*
X018623Y017805D01*
X017597Y017805D01*
X017417Y017985D01*
X017053Y017985D01*
X016828Y017760D02*
X016642Y017760D01*
X016675Y017602D02*
X016795Y017602D01*
X016795Y017443D02*
X016675Y017443D01*
X016597Y017285D02*
X016873Y017285D01*
X017032Y017126D02*
X016438Y017126D01*
X017235Y017545D02*
X018985Y017545D01*
X019347Y017285D02*
X019623Y017285D01*
X019545Y017443D02*
X019425Y017443D01*
X019425Y017602D02*
X019545Y017602D01*
X019578Y017760D02*
X019392Y017760D01*
X019234Y017919D02*
X019736Y017919D01*
X019760Y018077D02*
X013838Y018077D01*
X013885Y018236D02*
X019760Y018236D01*
X019760Y018394D02*
X013885Y018394D01*
X013859Y018553D02*
X019683Y018553D01*
X020136Y018778D02*
X020203Y018711D01*
X019886Y019028D02*
X019798Y019065D01*
X013826Y019065D01*
X013885Y019124D01*
X013885Y019345D02*
X021863Y019345D01*
X021705Y019504D02*
X013885Y019504D01*
X017484Y017919D02*
X018736Y017919D01*
X018623Y017285D02*
X017597Y017285D01*
X017438Y017126D02*
X018782Y017126D01*
X019188Y017126D02*
X019782Y017126D01*
X003940Y016017D02*
X003931Y016017D01*
X003940Y015858D02*
X003735Y015858D01*
X003717Y015700D02*
X003940Y015700D01*
X003925Y015541D02*
X003940Y015541D01*
D16*
X004200Y018925D03*
X006750Y019375D03*
M02*
