G75*
%MOIN*%
%OFA0B0*%
%FSLAX24Y24*%
%IPPOS*%
%LPD*%
%AMOC8*
5,1,8,0,0,1.08239X$1,22.5*
%
%ADD10C,0.0100*%
%ADD11OC8,0.0610*%
%ADD12C,0.0560*%
%ADD13C,0.0039*%
%ADD14C,0.0520*%
%ADD15C,0.0063*%
%ADD16OC8,0.0520*%
%ADD17C,0.0067*%
%ADD18C,0.0047*%
%ADD19C,0.0120*%
%ADD20C,0.0160*%
%ADD21C,0.0436*%
D10*
X002750Y010275D02*
X010050Y010275D01*
X012050Y012275D01*
X023000Y012275D01*
X023006Y012275D02*
X023045Y012277D01*
X023083Y012283D01*
X023120Y012292D01*
X023157Y012305D01*
X023192Y012322D01*
X023225Y012341D01*
X023256Y012364D01*
X023285Y012390D01*
X023311Y012419D01*
X023334Y012450D01*
X023353Y012483D01*
X023370Y012518D01*
X023383Y012555D01*
X023392Y012592D01*
X023398Y012630D01*
X023400Y012669D01*
X023400Y012675D02*
X023400Y018875D01*
X023400Y018881D02*
X023398Y018920D01*
X023392Y018958D01*
X023383Y018995D01*
X023370Y019032D01*
X023353Y019067D01*
X023334Y019100D01*
X023311Y019131D01*
X023285Y019160D01*
X023256Y019186D01*
X023225Y019209D01*
X023192Y019228D01*
X023157Y019245D01*
X023120Y019258D01*
X023083Y019267D01*
X023045Y019273D01*
X023006Y019275D01*
X022400Y019275D01*
X021400Y020275D01*
X004000Y020275D01*
X002400Y018675D01*
X002400Y010675D01*
X002400Y010669D02*
X002402Y010630D01*
X002408Y010592D01*
X002417Y010555D01*
X002430Y010518D01*
X002447Y010483D01*
X002466Y010450D01*
X002489Y010419D01*
X002515Y010390D01*
X002544Y010364D01*
X002575Y010341D01*
X002608Y010322D01*
X002643Y010305D01*
X002680Y010292D01*
X002717Y010283D01*
X002755Y010277D01*
X002794Y010275D01*
X005200Y017810D02*
X005202Y017813D01*
X005202Y018461D01*
X005200Y018462D01*
X006000Y018462D02*
X006002Y018461D01*
X006002Y017813D01*
X006000Y017810D01*
X013485Y014675D02*
X013571Y014676D01*
X014575Y014676D01*
X014575Y014689D01*
X014576Y014692D01*
D11*
X013400Y018325D03*
X012400Y018325D03*
X011400Y018325D03*
X011400Y019325D03*
X012400Y019325D03*
X013400Y019325D03*
D12*
X022260Y018275D02*
X022540Y018275D01*
X022540Y017275D02*
X022260Y017275D01*
X022260Y016275D02*
X022540Y016275D01*
X022540Y015275D02*
X022260Y015275D01*
X022260Y014275D02*
X022540Y014275D01*
X022540Y013275D02*
X022260Y013275D01*
X003540Y013275D02*
X003260Y013275D01*
X003260Y012275D02*
X003540Y012275D01*
X003540Y011275D02*
X003260Y011275D01*
X003260Y014275D02*
X003540Y014275D01*
X003540Y015275D02*
X003260Y015275D01*
X003260Y016275D02*
X003540Y016275D01*
X003540Y017275D02*
X003260Y017275D01*
X003260Y018275D02*
X003540Y018275D01*
D13*
X005397Y017988D02*
X005397Y017632D01*
X005003Y017632D01*
X005003Y017988D01*
X005397Y017988D01*
X005397Y017670D02*
X005003Y017670D01*
X005003Y017708D02*
X005397Y017708D01*
X005397Y017746D02*
X005003Y017746D01*
X005003Y017784D02*
X005397Y017784D01*
X005397Y017822D02*
X005003Y017822D01*
X005003Y017860D02*
X005397Y017860D01*
X005397Y017898D02*
X005003Y017898D01*
X005003Y017936D02*
X005397Y017936D01*
X005397Y017974D02*
X005003Y017974D01*
X005397Y017318D02*
X005397Y016962D01*
X005003Y016962D01*
X005003Y017318D01*
X005397Y017318D01*
X005397Y017000D02*
X005003Y017000D01*
X005003Y017038D02*
X005397Y017038D01*
X005397Y017076D02*
X005003Y017076D01*
X005003Y017114D02*
X005397Y017114D01*
X005397Y017152D02*
X005003Y017152D01*
X005003Y017190D02*
X005397Y017190D01*
X005397Y017228D02*
X005003Y017228D01*
X005003Y017266D02*
X005397Y017266D01*
X005397Y017304D02*
X005003Y017304D01*
X006197Y017318D02*
X006197Y016962D01*
X005803Y016962D01*
X005803Y017318D01*
X006197Y017318D01*
X006197Y017000D02*
X005803Y017000D01*
X005803Y017038D02*
X006197Y017038D01*
X006197Y017076D02*
X005803Y017076D01*
X005803Y017114D02*
X006197Y017114D01*
X006197Y017152D02*
X005803Y017152D01*
X005803Y017190D02*
X006197Y017190D01*
X006197Y017228D02*
X005803Y017228D01*
X005803Y017266D02*
X006197Y017266D01*
X006197Y017304D02*
X005803Y017304D01*
X006197Y017632D02*
X006197Y017988D01*
X006197Y017632D02*
X005803Y017632D01*
X005803Y017988D01*
X006197Y017988D01*
X006197Y017670D02*
X005803Y017670D01*
X005803Y017708D02*
X006197Y017708D01*
X006197Y017746D02*
X005803Y017746D01*
X005803Y017784D02*
X006197Y017784D01*
X006197Y017822D02*
X005803Y017822D01*
X005803Y017860D02*
X006197Y017860D01*
X006197Y017898D02*
X005803Y017898D01*
X005803Y017936D02*
X006197Y017936D01*
X006197Y017974D02*
X005803Y017974D01*
X008628Y017607D02*
X008628Y017213D01*
X008272Y017213D01*
X008272Y017607D01*
X008628Y017607D01*
X008628Y017251D02*
X008272Y017251D01*
X008272Y017289D02*
X008628Y017289D01*
X008628Y017327D02*
X008272Y017327D01*
X008272Y017365D02*
X008628Y017365D01*
X008628Y017403D02*
X008272Y017403D01*
X008272Y017441D02*
X008628Y017441D01*
X008628Y017479D02*
X008272Y017479D01*
X008272Y017517D02*
X008628Y017517D01*
X008628Y017555D02*
X008272Y017555D01*
X008272Y017593D02*
X008628Y017593D01*
X009297Y017588D02*
X009297Y017232D01*
X008903Y017232D01*
X008903Y017588D01*
X009297Y017588D01*
X009297Y017270D02*
X008903Y017270D01*
X008903Y017308D02*
X009297Y017308D01*
X009297Y017346D02*
X008903Y017346D01*
X008903Y017384D02*
X009297Y017384D01*
X009297Y017422D02*
X008903Y017422D01*
X008903Y017460D02*
X009297Y017460D01*
X009297Y017498D02*
X008903Y017498D01*
X008903Y017536D02*
X009297Y017536D01*
X009297Y017574D02*
X008903Y017574D01*
X009297Y016918D02*
X009297Y016562D01*
X008903Y016562D01*
X008903Y016918D01*
X009297Y016918D01*
X009297Y016600D02*
X008903Y016600D01*
X008903Y016638D02*
X009297Y016638D01*
X009297Y016676D02*
X008903Y016676D01*
X008903Y016714D02*
X009297Y016714D01*
X009297Y016752D02*
X008903Y016752D01*
X008903Y016790D02*
X009297Y016790D01*
X009297Y016828D02*
X008903Y016828D01*
X008903Y016866D02*
X009297Y016866D01*
X009297Y016904D02*
X008903Y016904D01*
X008628Y016937D02*
X008628Y016543D01*
X008272Y016543D01*
X008272Y016937D01*
X008628Y016937D01*
X008628Y016581D02*
X008272Y016581D01*
X008272Y016619D02*
X008628Y016619D01*
X008628Y016657D02*
X008272Y016657D01*
X008272Y016695D02*
X008628Y016695D01*
X008628Y016733D02*
X008272Y016733D01*
X008272Y016771D02*
X008628Y016771D01*
X008628Y016809D02*
X008272Y016809D01*
X008272Y016847D02*
X008628Y016847D01*
X008628Y016885D02*
X008272Y016885D01*
X008272Y016923D02*
X008628Y016923D01*
X010103Y013788D02*
X010103Y013432D01*
X010103Y013788D02*
X010497Y013788D01*
X010497Y013432D01*
X010103Y013432D01*
X010103Y013470D02*
X010497Y013470D01*
X010497Y013508D02*
X010103Y013508D01*
X010103Y013546D02*
X010497Y013546D01*
X010497Y013584D02*
X010103Y013584D01*
X010103Y013622D02*
X010497Y013622D01*
X010497Y013660D02*
X010103Y013660D01*
X010103Y013698D02*
X010497Y013698D01*
X010497Y013736D02*
X010103Y013736D01*
X010103Y013774D02*
X010497Y013774D01*
X010103Y013118D02*
X010103Y012762D01*
X010103Y013118D02*
X010497Y013118D01*
X010497Y012762D01*
X010103Y012762D01*
X010103Y012800D02*
X010497Y012800D01*
X010497Y012838D02*
X010103Y012838D01*
X010103Y012876D02*
X010497Y012876D01*
X010497Y012914D02*
X010103Y012914D01*
X010103Y012952D02*
X010497Y012952D01*
X010497Y012990D02*
X010103Y012990D01*
X010103Y013028D02*
X010497Y013028D01*
X010497Y013066D02*
X010103Y013066D01*
X010103Y013104D02*
X010497Y013104D01*
X012637Y014478D02*
X012993Y014478D01*
X012637Y014478D02*
X012637Y014872D01*
X012993Y014872D01*
X012993Y014478D01*
X012993Y014516D02*
X012637Y014516D01*
X012637Y014554D02*
X012993Y014554D01*
X012993Y014592D02*
X012637Y014592D01*
X012637Y014630D02*
X012993Y014630D01*
X012993Y014668D02*
X012637Y014668D01*
X012637Y014706D02*
X012993Y014706D01*
X012993Y014744D02*
X012637Y014744D01*
X012637Y014782D02*
X012993Y014782D01*
X012993Y014820D02*
X012637Y014820D01*
X012637Y014858D02*
X012993Y014858D01*
X013307Y014478D02*
X013663Y014478D01*
X013307Y014478D02*
X013307Y014872D01*
X013663Y014872D01*
X013663Y014478D01*
X013663Y014516D02*
X013307Y014516D01*
X013307Y014554D02*
X013663Y014554D01*
X013663Y014592D02*
X013307Y014592D01*
X013307Y014630D02*
X013663Y014630D01*
X013663Y014668D02*
X013307Y014668D01*
X013307Y014706D02*
X013663Y014706D01*
X013663Y014744D02*
X013307Y014744D01*
X013307Y014782D02*
X013663Y014782D01*
X013663Y014820D02*
X013307Y014820D01*
X013307Y014858D02*
X013663Y014858D01*
X014398Y014436D02*
X014754Y014436D01*
X014398Y014436D02*
X014398Y014948D01*
X014754Y014948D01*
X014754Y014436D01*
X014754Y014474D02*
X014398Y014474D01*
X014398Y014512D02*
X014754Y014512D01*
X014754Y014550D02*
X014398Y014550D01*
X014398Y014588D02*
X014754Y014588D01*
X014754Y014626D02*
X014398Y014626D01*
X014398Y014664D02*
X014754Y014664D01*
X014754Y014702D02*
X014398Y014702D01*
X014398Y014740D02*
X014754Y014740D01*
X014754Y014778D02*
X014398Y014778D01*
X014398Y014816D02*
X014754Y014816D01*
X014754Y014854D02*
X014398Y014854D01*
X014398Y014892D02*
X014754Y014892D01*
X014754Y014930D02*
X014398Y014930D01*
X014772Y015302D02*
X015128Y015302D01*
X014772Y015302D02*
X014772Y015814D01*
X015128Y015814D01*
X015128Y015302D01*
X015128Y015340D02*
X014772Y015340D01*
X014772Y015378D02*
X015128Y015378D01*
X015128Y015416D02*
X014772Y015416D01*
X014772Y015454D02*
X015128Y015454D01*
X015128Y015492D02*
X014772Y015492D01*
X014772Y015530D02*
X015128Y015530D01*
X015128Y015568D02*
X014772Y015568D01*
X014772Y015606D02*
X015128Y015606D01*
X015128Y015644D02*
X014772Y015644D01*
X014772Y015682D02*
X015128Y015682D01*
X015128Y015720D02*
X014772Y015720D01*
X014772Y015758D02*
X015128Y015758D01*
X015128Y015796D02*
X014772Y015796D01*
X015146Y014436D02*
X015502Y014436D01*
X015146Y014436D02*
X015146Y014948D01*
X015502Y014948D01*
X015502Y014436D01*
X015502Y014474D02*
X015146Y014474D01*
X015146Y014512D02*
X015502Y014512D01*
X015502Y014550D02*
X015146Y014550D01*
X015146Y014588D02*
X015502Y014588D01*
X015502Y014626D02*
X015146Y014626D01*
X015146Y014664D02*
X015502Y014664D01*
X015502Y014702D02*
X015146Y014702D01*
X015146Y014740D02*
X015502Y014740D01*
X015502Y014778D02*
X015146Y014778D01*
X015146Y014816D02*
X015502Y014816D01*
X015502Y014854D02*
X015146Y014854D01*
X015146Y014892D02*
X015502Y014892D01*
X015502Y014930D02*
X015146Y014930D01*
X018918Y015503D02*
X019312Y015503D01*
X019312Y015147D01*
X018918Y015147D01*
X018918Y015503D01*
X018918Y015185D02*
X019312Y015185D01*
X019312Y015223D02*
X018918Y015223D01*
X018918Y015261D02*
X019312Y015261D01*
X019312Y015299D02*
X018918Y015299D01*
X018918Y015337D02*
X019312Y015337D01*
X019312Y015375D02*
X018918Y015375D01*
X018918Y015413D02*
X019312Y015413D01*
X019312Y015451D02*
X018918Y015451D01*
X018918Y015489D02*
X019312Y015489D01*
X019588Y015503D02*
X019982Y015503D01*
X019982Y015147D01*
X019588Y015147D01*
X019588Y015503D01*
X019588Y015185D02*
X019982Y015185D01*
X019982Y015223D02*
X019588Y015223D01*
X019588Y015261D02*
X019982Y015261D01*
X019982Y015299D02*
X019588Y015299D01*
X019588Y015337D02*
X019982Y015337D01*
X019982Y015375D02*
X019588Y015375D01*
X019588Y015413D02*
X019982Y015413D01*
X019982Y015451D02*
X019588Y015451D01*
X019588Y015489D02*
X019982Y015489D01*
X005397Y013788D02*
X005397Y013432D01*
X005003Y013432D01*
X005003Y013788D01*
X005397Y013788D01*
X005397Y013470D02*
X005003Y013470D01*
X005003Y013508D02*
X005397Y013508D01*
X005397Y013546D02*
X005003Y013546D01*
X005003Y013584D02*
X005397Y013584D01*
X005397Y013622D02*
X005003Y013622D01*
X005003Y013660D02*
X005397Y013660D01*
X005397Y013698D02*
X005003Y013698D01*
X005003Y013736D02*
X005397Y013736D01*
X005397Y013774D02*
X005003Y013774D01*
X005397Y013118D02*
X005397Y012762D01*
X005003Y012762D01*
X005003Y013118D01*
X005397Y013118D01*
X005397Y012800D02*
X005003Y012800D01*
X005003Y012838D02*
X005397Y012838D01*
X005397Y012876D02*
X005003Y012876D01*
X005003Y012914D02*
X005397Y012914D01*
X005397Y012952D02*
X005003Y012952D01*
X005003Y012990D02*
X005397Y012990D01*
X005397Y013028D02*
X005003Y013028D01*
X005003Y013066D02*
X005397Y013066D01*
X005397Y013104D02*
X005003Y013104D01*
D14*
X007466Y018605D02*
X007466Y018865D01*
X008450Y018865D02*
X008450Y018605D01*
X009435Y018605D02*
X009435Y018865D01*
D15*
X015806Y015099D02*
X016374Y015099D01*
X016374Y014451D01*
X015806Y014451D01*
X015806Y015099D01*
X015806Y014513D02*
X016374Y014513D01*
X016374Y014575D02*
X015806Y014575D01*
X015806Y014637D02*
X016374Y014637D01*
X016374Y014699D02*
X015806Y014699D01*
X015806Y014761D02*
X016374Y014761D01*
X016374Y014823D02*
X015806Y014823D01*
X015806Y014885D02*
X016374Y014885D01*
X016374Y014947D02*
X015806Y014947D01*
X015806Y015009D02*
X016374Y015009D01*
X016374Y015071D02*
X015806Y015071D01*
X016926Y015099D02*
X017494Y015099D01*
X017494Y014451D01*
X016926Y014451D01*
X016926Y015099D01*
X016926Y014513D02*
X017494Y014513D01*
X017494Y014575D02*
X016926Y014575D01*
X016926Y014637D02*
X017494Y014637D01*
X017494Y014699D02*
X016926Y014699D01*
X016926Y014761D02*
X017494Y014761D01*
X017494Y014823D02*
X016926Y014823D01*
X016926Y014885D02*
X017494Y014885D01*
X017494Y014947D02*
X016926Y014947D01*
X016926Y015009D02*
X017494Y015009D01*
X017494Y015071D02*
X016926Y015071D01*
D16*
X017235Y017545D03*
X016235Y017545D03*
X018985Y017545D03*
X019985Y017545D03*
D17*
X008305Y013887D02*
X008305Y013285D01*
X008305Y013887D02*
X009695Y013887D01*
X009695Y013285D01*
X008305Y013285D01*
X008305Y013351D02*
X009695Y013351D01*
X009695Y013417D02*
X008305Y013417D01*
X008305Y013483D02*
X009695Y013483D01*
X009695Y013549D02*
X008305Y013549D01*
X008305Y013615D02*
X009695Y013615D01*
X009695Y013681D02*
X008305Y013681D01*
X008305Y013747D02*
X009695Y013747D01*
X009695Y013813D02*
X008305Y013813D01*
X008305Y013879D02*
X009695Y013879D01*
X008305Y011565D02*
X008305Y010963D01*
X008305Y011565D02*
X009695Y011565D01*
X009695Y010963D01*
X008305Y010963D01*
X008305Y011029D02*
X009695Y011029D01*
X009695Y011095D02*
X008305Y011095D01*
X008305Y011161D02*
X009695Y011161D01*
X009695Y011227D02*
X008305Y011227D01*
X008305Y011293D02*
X009695Y011293D01*
X009695Y011359D02*
X008305Y011359D01*
X008305Y011425D02*
X009695Y011425D01*
X009695Y011491D02*
X008305Y011491D01*
X008305Y011557D02*
X009695Y011557D01*
X005955Y011565D02*
X005955Y010963D01*
X005955Y011565D02*
X007345Y011565D01*
X007345Y010963D01*
X005955Y010963D01*
X005955Y011029D02*
X007345Y011029D01*
X007345Y011095D02*
X005955Y011095D01*
X005955Y011161D02*
X007345Y011161D01*
X007345Y011227D02*
X005955Y011227D01*
X005955Y011293D02*
X007345Y011293D01*
X007345Y011359D02*
X005955Y011359D01*
X005955Y011425D02*
X007345Y011425D01*
X007345Y011491D02*
X005955Y011491D01*
X005955Y011557D02*
X007345Y011557D01*
X005955Y013285D02*
X005955Y013887D01*
X007345Y013887D01*
X007345Y013285D01*
X005955Y013285D01*
X005955Y013351D02*
X007345Y013351D01*
X007345Y013417D02*
X005955Y013417D01*
X005955Y013483D02*
X007345Y013483D01*
X007345Y013549D02*
X005955Y013549D01*
X005955Y013615D02*
X007345Y013615D01*
X007345Y013681D02*
X005955Y013681D01*
X005955Y013747D02*
X007345Y013747D01*
X007345Y013813D02*
X005955Y013813D01*
X005955Y013879D02*
X007345Y013879D01*
D18*
X006213Y018675D02*
X005787Y018675D01*
X006213Y018675D02*
X006213Y018249D01*
X005787Y018249D01*
X005787Y018675D01*
X005787Y018295D02*
X006213Y018295D01*
X006213Y018341D02*
X005787Y018341D01*
X005787Y018387D02*
X006213Y018387D01*
X006213Y018433D02*
X005787Y018433D01*
X005787Y018479D02*
X006213Y018479D01*
X006213Y018525D02*
X005787Y018525D01*
X005787Y018571D02*
X006213Y018571D01*
X006213Y018617D02*
X005787Y018617D01*
X005787Y018663D02*
X006213Y018663D01*
X006213Y019501D02*
X005787Y019501D01*
X006213Y019501D02*
X006213Y019075D01*
X005787Y019075D01*
X005787Y019501D01*
X005787Y019121D02*
X006213Y019121D01*
X006213Y019167D02*
X005787Y019167D01*
X005787Y019213D02*
X006213Y019213D01*
X006213Y019259D02*
X005787Y019259D01*
X005787Y019305D02*
X006213Y019305D01*
X006213Y019351D02*
X005787Y019351D01*
X005787Y019397D02*
X006213Y019397D01*
X006213Y019443D02*
X005787Y019443D01*
X005787Y019489D02*
X006213Y019489D01*
X005413Y019501D02*
X004987Y019501D01*
X005413Y019501D02*
X005413Y019075D01*
X004987Y019075D01*
X004987Y019501D01*
X004987Y019121D02*
X005413Y019121D01*
X005413Y019167D02*
X004987Y019167D01*
X004987Y019213D02*
X005413Y019213D01*
X005413Y019259D02*
X004987Y019259D01*
X004987Y019305D02*
X005413Y019305D01*
X005413Y019351D02*
X004987Y019351D01*
X004987Y019397D02*
X005413Y019397D01*
X005413Y019443D02*
X004987Y019443D01*
X004987Y019489D02*
X005413Y019489D01*
X005413Y018675D02*
X004987Y018675D01*
X005413Y018675D02*
X005413Y018249D01*
X004987Y018249D01*
X004987Y018675D01*
X004987Y018295D02*
X005413Y018295D01*
X005413Y018341D02*
X004987Y018341D01*
X004987Y018387D02*
X005413Y018387D01*
X005413Y018433D02*
X004987Y018433D01*
X004987Y018479D02*
X005413Y018479D01*
X005413Y018525D02*
X004987Y018525D01*
X004987Y018571D02*
X005413Y018571D01*
X005413Y018617D02*
X004987Y018617D01*
X004987Y018663D02*
X005413Y018663D01*
D19*
X005982Y017159D02*
X006002Y017140D01*
X006000Y017140D01*
X008450Y016740D02*
X009100Y016740D01*
X009100Y017410D02*
X009100Y017925D01*
X008950Y018075D01*
X008950Y019275D01*
X009100Y019425D01*
X011300Y019425D01*
X011400Y019325D01*
X014950Y016975D02*
X014950Y015558D01*
X015324Y014692D02*
X016073Y014692D01*
X016090Y014775D01*
X014950Y016975D02*
X015520Y017545D01*
X016235Y017545D01*
X019785Y017345D02*
X019785Y015325D01*
X019785Y017345D02*
X019985Y017545D01*
X022652Y017724D02*
X022653Y017726D01*
X006650Y011264D02*
X006231Y011006D01*
D20*
X006570Y010945D02*
X006730Y010945D01*
X006730Y011103D02*
X006570Y011103D01*
X006570Y011184D02*
X006730Y011184D01*
X006730Y011344D01*
X006570Y011344D01*
X006570Y011778D01*
X005927Y011778D01*
X005873Y011764D01*
X005824Y011736D01*
X005784Y011696D01*
X005756Y011647D01*
X005742Y011593D01*
X005742Y011344D01*
X006570Y011344D01*
X006570Y011184D01*
X005742Y011184D01*
X005742Y010934D01*
X005756Y010880D01*
X005784Y010831D01*
X005824Y010792D01*
X005873Y010763D01*
X005927Y010749D01*
X006570Y010749D01*
X006570Y011184D01*
X006570Y011262D02*
X004000Y011262D01*
X004000Y011183D02*
X004000Y011366D01*
X003930Y011536D01*
X003801Y011665D01*
X003631Y011735D01*
X003168Y011735D01*
X002999Y011665D01*
X002870Y011536D01*
X002800Y011366D01*
X002800Y011183D01*
X002870Y011014D01*
X002999Y010885D01*
X003168Y010815D01*
X003631Y010815D01*
X003801Y010885D01*
X003930Y011014D01*
X004000Y011183D01*
X003967Y011103D02*
X005742Y011103D01*
X005742Y010945D02*
X003860Y010945D01*
X003978Y011420D02*
X005742Y011420D01*
X005742Y011579D02*
X003887Y011579D01*
X003801Y011885D02*
X003631Y011815D01*
X003168Y011815D01*
X002999Y011885D01*
X002870Y012014D01*
X002800Y012183D01*
X002800Y012366D01*
X002870Y012536D01*
X002999Y012665D01*
X003168Y012735D01*
X003631Y012735D01*
X003801Y012665D01*
X003930Y012536D01*
X004000Y012366D01*
X004000Y012183D01*
X003930Y012014D01*
X003801Y011885D01*
X003811Y011896D02*
X011204Y011896D01*
X011362Y012054D02*
X003946Y012054D01*
X004000Y012213D02*
X011521Y012213D01*
X011679Y012371D02*
X003998Y012371D01*
X003932Y012530D02*
X011838Y012530D01*
X011863Y012555D02*
X011770Y012462D01*
X009913Y010605D01*
X002794Y010605D01*
X002781Y010606D01*
X002758Y010616D01*
X002741Y010633D01*
X002731Y010656D01*
X002730Y010669D01*
X002730Y018538D01*
X004137Y019945D01*
X021263Y019945D01*
X022120Y019088D01*
X022213Y018995D01*
X022334Y018945D01*
X023006Y018945D01*
X023019Y018944D01*
X023042Y018934D01*
X023059Y018917D01*
X023069Y018894D01*
X023070Y018881D01*
X023070Y012669D01*
X023069Y012656D01*
X023059Y012633D01*
X023042Y012616D01*
X023019Y012606D01*
X023006Y012605D01*
X011984Y012605D01*
X011863Y012555D01*
X011045Y011737D02*
X009823Y011737D01*
X009826Y011736D02*
X009777Y011764D01*
X009723Y011778D01*
X009080Y011778D01*
X009080Y011344D01*
X008920Y011344D01*
X008920Y011778D01*
X008277Y011778D01*
X008223Y011764D01*
X008174Y011736D01*
X008134Y011696D01*
X008106Y011647D01*
X008092Y011593D01*
X008092Y011344D01*
X008920Y011344D01*
X008920Y011184D01*
X008092Y011184D01*
X008092Y010934D01*
X008106Y010880D01*
X008134Y010831D01*
X008174Y010792D01*
X008223Y010763D01*
X008277Y010749D01*
X008920Y010749D01*
X008920Y011184D01*
X009080Y011184D01*
X009080Y011344D01*
X009908Y011344D01*
X009908Y011593D01*
X009894Y011647D01*
X009866Y011696D01*
X009826Y011736D01*
X009908Y011579D02*
X010887Y011579D01*
X010728Y011420D02*
X009908Y011420D01*
X009908Y011184D02*
X009908Y010934D01*
X009894Y010880D01*
X009866Y010831D01*
X009826Y010792D01*
X009777Y010763D01*
X009723Y010749D01*
X009080Y010749D01*
X009080Y011184D01*
X009908Y011184D01*
X009908Y011103D02*
X010411Y011103D01*
X010253Y010945D02*
X009908Y010945D01*
X009816Y010786D02*
X010094Y010786D01*
X009936Y010628D02*
X002747Y010628D01*
X002730Y010786D02*
X005834Y010786D01*
X006570Y010786D02*
X006730Y010786D01*
X006730Y010749D02*
X007373Y010749D01*
X007427Y010763D01*
X007476Y010792D01*
X007516Y010831D01*
X007544Y010880D01*
X007558Y010934D01*
X007558Y011184D01*
X006730Y011184D01*
X006730Y010749D01*
X006730Y011262D02*
X008920Y011262D01*
X008920Y011420D02*
X009080Y011420D01*
X009080Y011262D02*
X010570Y011262D01*
X009080Y011103D02*
X008920Y011103D01*
X008920Y010945D02*
X009080Y010945D01*
X009080Y010786D02*
X008920Y010786D01*
X008184Y010786D02*
X007466Y010786D01*
X007558Y010945D02*
X008092Y010945D01*
X008092Y011103D02*
X007558Y011103D01*
X007558Y011344D02*
X007558Y011593D01*
X007544Y011647D01*
X007516Y011696D01*
X007476Y011736D01*
X007427Y011764D01*
X007373Y011778D01*
X006730Y011778D01*
X006730Y011344D01*
X007558Y011344D01*
X007558Y011420D02*
X008092Y011420D01*
X008092Y011579D02*
X007558Y011579D01*
X007473Y011737D02*
X008177Y011737D01*
X008920Y011737D02*
X009080Y011737D01*
X009080Y011579D02*
X008920Y011579D01*
X009981Y012603D02*
X010026Y012577D01*
X010077Y012564D01*
X010282Y012564D01*
X010282Y012922D01*
X010318Y012922D01*
X010318Y012564D01*
X010523Y012564D01*
X010574Y012577D01*
X010619Y012603D01*
X010657Y012641D01*
X010683Y012686D01*
X010697Y012737D01*
X010697Y012922D01*
X010318Y012922D01*
X010318Y012959D01*
X010697Y012959D01*
X010697Y013144D01*
X010683Y013195D01*
X010657Y013240D01*
X010622Y013275D01*
X010697Y013350D01*
X010697Y013870D01*
X010580Y013986D01*
X010020Y013986D01*
X009908Y013874D01*
X009908Y013976D01*
X009783Y014101D01*
X008217Y014101D01*
X008154Y014039D01*
X007770Y014422D01*
X007697Y014495D01*
X007602Y014535D01*
X004998Y014535D01*
X004903Y014495D01*
X004830Y014422D01*
X004592Y014185D01*
X004258Y014185D01*
X003947Y014495D01*
X003946Y014496D01*
X003930Y014536D01*
X003801Y014665D01*
X003631Y014735D01*
X003168Y014735D01*
X002999Y014665D01*
X002870Y014536D01*
X002800Y014366D01*
X002800Y014183D01*
X002870Y014014D01*
X002999Y013885D01*
X003168Y013815D01*
X003572Y013815D01*
X003492Y013735D01*
X003168Y013735D01*
X002999Y013665D01*
X002870Y013536D01*
X002800Y013366D01*
X002800Y013183D01*
X002870Y013014D01*
X002999Y012885D01*
X003168Y012815D01*
X003631Y012815D01*
X003801Y012885D01*
X003930Y013014D01*
X004000Y013183D01*
X004000Y013350D01*
X004804Y013350D01*
X004878Y013275D01*
X004843Y013240D01*
X004817Y013195D01*
X004803Y013144D01*
X004803Y012959D01*
X005182Y012959D01*
X005182Y012922D01*
X005218Y012922D01*
X005218Y012564D01*
X005423Y012564D01*
X005474Y012577D01*
X005519Y012603D01*
X005557Y012641D01*
X005583Y012686D01*
X005597Y012737D01*
X005597Y012922D01*
X005218Y012922D01*
X005218Y012959D01*
X005597Y012959D01*
X005597Y013144D01*
X005583Y013195D01*
X005557Y013240D01*
X005522Y013275D01*
X005596Y013350D01*
X005742Y013350D01*
X005742Y013197D01*
X005867Y013072D01*
X007433Y013072D01*
X007558Y013197D01*
X007558Y013899D01*
X008092Y013366D01*
X008092Y013197D01*
X008217Y013072D01*
X009783Y013072D01*
X009908Y013197D01*
X009908Y013345D01*
X009978Y013275D01*
X009943Y013240D01*
X009917Y013195D01*
X009903Y013144D01*
X009903Y012959D01*
X010282Y012959D01*
X010282Y012922D01*
X009903Y012922D01*
X009903Y012737D01*
X009917Y012686D01*
X009943Y012641D01*
X009981Y012603D01*
X009917Y012688D02*
X005583Y012688D01*
X005597Y012847D02*
X009903Y012847D01*
X009903Y013005D02*
X005597Y013005D01*
X005591Y013164D02*
X005775Y013164D01*
X005742Y013322D02*
X005569Y013322D01*
X005200Y013610D02*
X006627Y013610D01*
X006650Y013586D01*
X006527Y013610D01*
X007558Y013639D02*
X007818Y013639D01*
X007660Y013798D02*
X007558Y013798D01*
X007558Y013481D02*
X007977Y013481D01*
X008092Y013322D02*
X007558Y013322D01*
X007525Y013164D02*
X008125Y013164D01*
X008339Y013486D02*
X007550Y014275D01*
X005050Y014275D01*
X004700Y013925D01*
X004150Y013925D01*
X003800Y014275D01*
X003400Y014275D01*
X003555Y013798D02*
X002730Y013798D01*
X002730Y013956D02*
X002928Y013956D01*
X002829Y014115D02*
X002730Y014115D01*
X002730Y014273D02*
X002800Y014273D01*
X002827Y014432D02*
X002730Y014432D01*
X002730Y014590D02*
X002924Y014590D01*
X002730Y014749D02*
X011309Y014749D01*
X011150Y014907D02*
X003823Y014907D01*
X003801Y014885D02*
X003930Y015014D01*
X003930Y015015D01*
X011042Y015015D01*
X011603Y014455D01*
X011698Y014415D01*
X012439Y014415D01*
X012439Y014395D01*
X012555Y014278D01*
X013075Y014278D01*
X013150Y014353D01*
X013225Y014278D01*
X013745Y014278D01*
X013861Y014395D01*
X013861Y014446D01*
X014199Y014446D01*
X014199Y014353D01*
X014316Y014236D01*
X014836Y014236D01*
X014950Y014350D01*
X015064Y014236D01*
X015584Y014236D01*
X015653Y014306D01*
X015719Y014240D01*
X016461Y014240D01*
X016585Y014364D01*
X016585Y015186D01*
X016461Y015310D01*
X015719Y015310D01*
X015595Y015186D01*
X015595Y015136D01*
X015584Y015148D01*
X015255Y015148D01*
X015327Y015219D01*
X015327Y015897D01*
X015210Y016014D01*
X015190Y016014D01*
X015190Y016876D01*
X015619Y017305D01*
X015853Y017305D01*
X016053Y017105D01*
X016417Y017105D01*
X016675Y017363D01*
X016675Y017727D01*
X016417Y017985D01*
X016053Y017985D01*
X015853Y017785D01*
X015472Y017785D01*
X015384Y017749D01*
X014814Y017178D01*
X014747Y017111D01*
X014710Y017023D01*
X014710Y016014D01*
X014690Y016014D01*
X014573Y015897D01*
X014573Y015219D01*
X014645Y015148D01*
X014316Y015148D01*
X014199Y015031D01*
X014199Y014906D01*
X013861Y014906D01*
X013861Y014955D01*
X013745Y015072D01*
X013225Y015072D01*
X013150Y014997D01*
X013075Y015072D01*
X012555Y015072D01*
X012439Y014955D01*
X012439Y014935D01*
X011858Y014935D01*
X011297Y015495D01*
X011202Y015535D01*
X009578Y015535D01*
X009747Y015705D01*
X009820Y015778D01*
X009860Y015873D01*
X009860Y017827D01*
X009820Y017922D01*
X009747Y017995D01*
X009695Y018048D01*
X009695Y018243D01*
X009808Y018356D01*
X009875Y018518D01*
X009875Y018953D01*
X009808Y019115D01*
X009737Y019185D01*
X010915Y019185D01*
X010915Y019124D01*
X011199Y018840D01*
X011601Y018840D01*
X011885Y019124D01*
X011885Y019526D01*
X011601Y019810D01*
X011199Y019810D01*
X011054Y019665D01*
X009052Y019665D01*
X008964Y019628D01*
X008897Y019561D01*
X008814Y019478D01*
X008747Y019411D01*
X008710Y019323D01*
X008710Y019221D01*
X008681Y019242D01*
X008619Y019273D01*
X008554Y019295D01*
X008485Y019305D01*
X008450Y019305D01*
X008416Y019305D01*
X008347Y019295D01*
X008282Y019273D01*
X008220Y019242D01*
X008164Y019201D01*
X008115Y019152D01*
X008074Y019096D01*
X008043Y019034D01*
X008021Y018969D01*
X008010Y018900D01*
X008010Y018735D01*
X008010Y018571D01*
X008021Y018502D01*
X008043Y018437D01*
X008074Y018375D01*
X008115Y018319D01*
X008164Y018270D01*
X008220Y018229D01*
X008282Y018198D01*
X008347Y018176D01*
X008416Y018165D01*
X008450Y018165D01*
X008450Y018735D01*
X008450Y018735D01*
X008010Y018735D01*
X008450Y018735D01*
X008450Y018735D01*
X008450Y018165D01*
X008485Y018165D01*
X008554Y018176D01*
X008619Y018198D01*
X008681Y018229D01*
X008710Y018250D01*
X008710Y018027D01*
X008747Y017939D01*
X008860Y017826D01*
X008860Y017786D01*
X008820Y017786D01*
X008775Y017741D01*
X008750Y017766D01*
X008704Y017793D01*
X008653Y017806D01*
X008468Y017806D01*
X008468Y017428D01*
X008432Y017428D01*
X008432Y017806D01*
X008247Y017806D01*
X008196Y017793D01*
X008150Y017766D01*
X008113Y017729D01*
X008110Y017724D01*
X008110Y018077D01*
X008710Y018077D01*
X008710Y018236D02*
X008690Y018236D01*
X008450Y018236D02*
X008450Y018236D01*
X008450Y018394D02*
X008450Y018394D01*
X008450Y018553D02*
X008450Y018553D01*
X008450Y018711D02*
X008450Y018711D01*
X008450Y018735D02*
X008450Y019305D01*
X008450Y018735D01*
X008450Y018735D01*
X008450Y018870D02*
X008450Y018870D01*
X008450Y019028D02*
X008450Y019028D01*
X008450Y019187D02*
X008450Y019187D01*
X008149Y019187D02*
X007767Y019187D01*
X007715Y019238D02*
X007554Y019305D01*
X007379Y019305D01*
X007217Y019238D01*
X007093Y019115D01*
X007026Y018953D01*
X007026Y018518D01*
X007093Y018356D01*
X007217Y018232D01*
X007316Y018192D01*
X007590Y017917D01*
X007590Y016689D01*
X007630Y016593D01*
X007703Y016520D01*
X007798Y016480D01*
X008073Y016480D01*
X008073Y016461D01*
X008190Y016344D01*
X008710Y016344D01*
X008775Y016409D01*
X008820Y016364D01*
X009340Y016364D01*
X009340Y016033D01*
X009142Y015835D01*
X004458Y015835D01*
X004000Y016293D01*
X004000Y016366D01*
X003930Y016536D01*
X003801Y016665D01*
X003631Y016735D01*
X003168Y016735D01*
X002999Y016665D01*
X002870Y016536D01*
X002800Y016366D01*
X002800Y016183D01*
X002870Y016014D01*
X002999Y015885D01*
X003168Y015815D01*
X003631Y015815D01*
X003710Y015847D01*
X004022Y015535D01*
X003930Y015535D01*
X003930Y015536D01*
X003801Y015665D01*
X003631Y015735D01*
X003168Y015735D01*
X002999Y015665D01*
X002870Y015536D01*
X002800Y015366D01*
X002800Y015183D01*
X002870Y015014D01*
X002999Y014885D01*
X003168Y014815D01*
X003631Y014815D01*
X003801Y014885D01*
X003876Y014590D02*
X011467Y014590D01*
X011658Y014432D02*
X007761Y014432D01*
X007920Y014273D02*
X014279Y014273D01*
X014199Y014432D02*
X013861Y014432D01*
X013500Y014660D02*
X013485Y014675D01*
X013861Y014907D02*
X014199Y014907D01*
X014234Y015066D02*
X013751Y015066D01*
X013219Y015066D02*
X013081Y015066D01*
X012815Y014675D02*
X011750Y014675D01*
X011150Y015275D01*
X003400Y015275D01*
X003083Y015700D02*
X002730Y015700D01*
X002730Y015858D02*
X003065Y015858D01*
X002869Y016017D02*
X002730Y016017D01*
X002730Y016175D02*
X002804Y016175D01*
X002800Y016334D02*
X002730Y016334D01*
X002730Y016492D02*
X002852Y016492D01*
X002730Y016651D02*
X002985Y016651D01*
X002999Y016885D02*
X003168Y016815D01*
X003631Y016815D01*
X003801Y016885D01*
X003930Y017014D01*
X004000Y017183D01*
X004000Y017366D01*
X003930Y017536D01*
X003801Y017665D01*
X003631Y017735D01*
X003168Y017735D01*
X002999Y017665D01*
X002870Y017536D01*
X002800Y017366D01*
X002800Y017183D01*
X002870Y017014D01*
X002999Y016885D01*
X002917Y016968D02*
X002730Y016968D01*
X002730Y017126D02*
X002824Y017126D01*
X002800Y017285D02*
X002730Y017285D01*
X002730Y017443D02*
X002832Y017443D01*
X002730Y017602D02*
X002936Y017602D01*
X002730Y017760D02*
X004803Y017760D01*
X004803Y017602D02*
X003864Y017602D01*
X003968Y017443D02*
X004846Y017443D01*
X004843Y017440D02*
X004817Y017395D01*
X004803Y017344D01*
X004803Y017159D01*
X005182Y017159D01*
X005182Y017122D01*
X005218Y017122D01*
X005218Y016764D01*
X005423Y016764D01*
X005474Y016777D01*
X005519Y016803D01*
X005557Y016841D01*
X005583Y016886D01*
X005597Y016937D01*
X005597Y017122D01*
X005218Y017122D01*
X005218Y017159D01*
X005597Y017159D01*
X005597Y017344D01*
X005583Y017395D01*
X005557Y017440D01*
X005522Y017475D01*
X005597Y017550D01*
X005597Y018070D01*
X005559Y018107D01*
X005600Y018148D01*
X005641Y018107D01*
X005603Y018070D01*
X005603Y017550D01*
X005678Y017475D01*
X005643Y017440D01*
X005617Y017395D01*
X005603Y017344D01*
X005603Y017159D01*
X005982Y017159D01*
X005982Y017122D01*
X006018Y017122D01*
X006018Y016764D01*
X006223Y016764D01*
X006274Y016777D01*
X006319Y016803D01*
X006357Y016841D01*
X006383Y016886D01*
X006397Y016937D01*
X006397Y017122D01*
X006018Y017122D01*
X006018Y017159D01*
X006397Y017159D01*
X006397Y017344D01*
X006383Y017395D01*
X006357Y017440D01*
X006322Y017475D01*
X006397Y017550D01*
X006397Y018070D01*
X006359Y018107D01*
X006416Y018165D01*
X006416Y018759D01*
X006300Y018875D01*
X006416Y018991D01*
X006416Y019115D01*
X006447Y019115D01*
X006524Y019037D01*
X006671Y018977D01*
X006829Y018977D01*
X006976Y019037D01*
X007088Y019149D01*
X007148Y019296D01*
X007148Y019454D01*
X007088Y019601D01*
X006976Y019713D01*
X006829Y019773D01*
X006671Y019773D01*
X006524Y019713D01*
X006447Y019635D01*
X006367Y019635D01*
X006297Y019705D01*
X005703Y019705D01*
X005600Y019602D01*
X005497Y019705D01*
X004903Y019705D01*
X004784Y019585D01*
X004784Y019535D01*
X004248Y019535D01*
X004153Y019495D01*
X004080Y019422D01*
X004053Y019395D01*
X003980Y019322D01*
X003941Y019229D01*
X003862Y019151D01*
X003802Y019004D01*
X003802Y018846D01*
X003862Y018699D01*
X003974Y018587D01*
X004121Y018527D01*
X004279Y018527D01*
X004426Y018587D01*
X004538Y018699D01*
X004598Y018846D01*
X004598Y019004D01*
X004594Y019015D01*
X004784Y019015D01*
X004784Y018991D01*
X004900Y018875D01*
X004784Y018759D01*
X004784Y018165D01*
X004841Y018107D01*
X004803Y018070D01*
X004803Y017550D01*
X004878Y017475D01*
X004843Y017440D01*
X004803Y017285D02*
X004000Y017285D01*
X003976Y017126D02*
X005182Y017126D01*
X005182Y017122D02*
X004803Y017122D01*
X004803Y016937D01*
X004817Y016886D01*
X004843Y016841D01*
X004881Y016803D01*
X004926Y016777D01*
X004977Y016764D01*
X005182Y016764D01*
X005182Y017122D01*
X005200Y017140D02*
X006000Y017140D01*
X006018Y017126D02*
X007590Y017126D01*
X007590Y016968D02*
X006397Y016968D01*
X006325Y016809D02*
X007590Y016809D01*
X007606Y016651D02*
X003815Y016651D01*
X003948Y016492D02*
X007770Y016492D01*
X007850Y016740D02*
X007850Y018025D01*
X007466Y018409D01*
X007466Y018735D01*
X007026Y018711D02*
X006416Y018711D01*
X006416Y018553D02*
X007026Y018553D01*
X007078Y018394D02*
X006416Y018394D01*
X006416Y018236D02*
X007214Y018236D01*
X007430Y018077D02*
X006389Y018077D01*
X006397Y017919D02*
X007589Y017919D01*
X007590Y017760D02*
X006397Y017760D01*
X006397Y017602D02*
X007590Y017602D01*
X007590Y017443D02*
X006354Y017443D01*
X006397Y017285D02*
X007590Y017285D01*
X008110Y017760D02*
X008144Y017760D01*
X008110Y017919D02*
X008767Y017919D01*
X008756Y017760D02*
X008794Y017760D01*
X008468Y017760D02*
X008432Y017760D01*
X008432Y017602D02*
X008468Y017602D01*
X008468Y017443D02*
X008432Y017443D01*
X008110Y018077D02*
X008070Y018172D01*
X007997Y018245D01*
X007853Y018390D01*
X007906Y018518D01*
X007906Y018953D01*
X007839Y019115D01*
X007715Y019238D01*
X007875Y019028D02*
X008041Y019028D01*
X008010Y018870D02*
X007906Y018870D01*
X007906Y018711D02*
X008010Y018711D01*
X008013Y018553D02*
X007906Y018553D01*
X007855Y018394D02*
X008064Y018394D01*
X008007Y018236D02*
X008211Y018236D01*
X007026Y018870D02*
X006305Y018870D01*
X006416Y019028D02*
X006547Y019028D01*
X006750Y019375D02*
X006087Y019375D01*
X006000Y019288D01*
X005660Y019662D02*
X005540Y019662D01*
X005200Y019288D02*
X005187Y019275D01*
X004300Y019275D01*
X004200Y019175D01*
X004200Y018925D01*
X003899Y019187D02*
X003378Y019187D01*
X003537Y019345D02*
X004002Y019345D01*
X004053Y019395D02*
X004053Y019395D01*
X004080Y019422D02*
X004080Y019422D01*
X004172Y019504D02*
X003695Y019504D01*
X003854Y019662D02*
X004860Y019662D01*
X004012Y019821D02*
X021388Y019821D01*
X021546Y019662D02*
X013749Y019662D01*
X013885Y019526D02*
X013601Y019810D01*
X013414Y019810D01*
X013414Y019339D01*
X013885Y019339D01*
X013885Y019526D01*
X013885Y019504D02*
X021705Y019504D01*
X021863Y019345D02*
X013885Y019345D01*
X013885Y019311D02*
X013414Y019311D01*
X013414Y019339D01*
X013386Y019339D01*
X013386Y019810D01*
X013199Y019810D01*
X012915Y019526D01*
X012915Y019339D01*
X013386Y019339D01*
X013386Y019311D01*
X013414Y019311D01*
X013414Y018840D01*
X013601Y018840D01*
X013885Y019124D01*
X013885Y019311D01*
X013885Y019187D02*
X022022Y019187D01*
X022120Y019088D02*
X022120Y019088D01*
X022180Y019028D02*
X013789Y019028D01*
X013631Y018870D02*
X023070Y018870D01*
X023070Y018711D02*
X022689Y018711D01*
X022631Y018735D02*
X022168Y018735D01*
X021999Y018665D01*
X021870Y018536D01*
X021800Y018366D01*
X021800Y018183D01*
X021870Y018014D01*
X021999Y017885D01*
X022168Y017815D01*
X022631Y017815D01*
X022801Y017885D01*
X022930Y018014D01*
X023000Y018183D01*
X023000Y018366D01*
X022930Y018536D01*
X022801Y018665D01*
X022631Y018735D01*
X022913Y018553D02*
X023070Y018553D01*
X023070Y018394D02*
X022989Y018394D01*
X023000Y018236D02*
X023070Y018236D01*
X023070Y018077D02*
X022956Y018077D01*
X023070Y017919D02*
X022834Y017919D01*
X022801Y017665D02*
X022631Y017735D01*
X022168Y017735D01*
X021999Y017665D01*
X021870Y017536D01*
X021800Y017366D01*
X021800Y017183D01*
X021870Y017014D01*
X021999Y016885D01*
X022168Y016815D01*
X022631Y016815D01*
X022801Y016885D01*
X022930Y017014D01*
X023000Y017183D01*
X023000Y017366D01*
X022930Y017536D01*
X022801Y017665D01*
X022864Y017602D02*
X023070Y017602D01*
X023070Y017760D02*
X020392Y017760D01*
X020425Y017727D02*
X020167Y017985D01*
X019803Y017985D01*
X019545Y017727D01*
X019545Y017393D01*
X019545Y017392D01*
X019545Y015702D01*
X019505Y015702D01*
X019450Y015647D01*
X019435Y015662D01*
X019389Y015688D01*
X019338Y015702D01*
X019134Y015702D01*
X019134Y015343D01*
X019097Y015343D01*
X019097Y015307D01*
X018719Y015307D01*
X018719Y015122D01*
X018732Y015071D01*
X018759Y015025D01*
X018796Y014988D01*
X018841Y014962D01*
X018892Y014948D01*
X019097Y014948D01*
X019097Y015307D01*
X019134Y015307D01*
X019134Y014948D01*
X019338Y014948D01*
X019389Y014962D01*
X019435Y014988D01*
X019450Y015003D01*
X019505Y014948D01*
X020064Y014948D01*
X020181Y015065D01*
X020181Y015585D01*
X020064Y015702D01*
X020025Y015702D01*
X020025Y017105D01*
X020167Y017105D01*
X020425Y017363D01*
X020425Y017727D01*
X020425Y017602D02*
X021936Y017602D01*
X021832Y017443D02*
X020425Y017443D01*
X020347Y017285D02*
X021800Y017285D01*
X021824Y017126D02*
X020188Y017126D01*
X020025Y016968D02*
X021917Y016968D01*
X021999Y016665D02*
X021870Y016536D01*
X021800Y016366D01*
X021800Y016183D01*
X021870Y016014D01*
X021999Y015885D01*
X022168Y015815D01*
X022631Y015815D01*
X022801Y015885D01*
X022930Y016014D01*
X023000Y016183D01*
X023000Y016366D01*
X022930Y016536D01*
X022801Y016665D01*
X022631Y016735D01*
X022168Y016735D01*
X021999Y016665D01*
X021985Y016651D02*
X020025Y016651D01*
X020025Y016809D02*
X023070Y016809D01*
X023070Y016651D02*
X022815Y016651D01*
X022948Y016492D02*
X023070Y016492D01*
X023070Y016334D02*
X023000Y016334D01*
X022996Y016175D02*
X023070Y016175D01*
X023070Y016017D02*
X022931Y016017D01*
X023070Y015858D02*
X022735Y015858D01*
X022717Y015700D02*
X023070Y015700D01*
X023070Y015541D02*
X022925Y015541D01*
X022930Y015536D02*
X022801Y015665D01*
X022631Y015735D01*
X022168Y015735D01*
X021999Y015665D01*
X021870Y015536D01*
X021800Y015366D01*
X021800Y015183D01*
X021870Y015014D01*
X021999Y014885D01*
X022168Y014815D01*
X022631Y014815D01*
X022801Y014885D01*
X022930Y015014D01*
X023000Y015183D01*
X023000Y015366D01*
X022930Y015536D01*
X022993Y015383D02*
X023070Y015383D01*
X023070Y015224D02*
X023000Y015224D01*
X022951Y015066D02*
X023070Y015066D01*
X023070Y014907D02*
X022823Y014907D01*
X022801Y014665D02*
X022631Y014735D01*
X022168Y014735D01*
X021999Y014665D01*
X021870Y014536D01*
X021800Y014366D01*
X021800Y014183D01*
X021870Y014014D01*
X021999Y013885D01*
X022168Y013815D01*
X022631Y013815D01*
X022801Y013885D01*
X022930Y014014D01*
X023000Y014183D01*
X023000Y014366D01*
X022930Y014536D01*
X022801Y014665D01*
X022876Y014590D02*
X023070Y014590D01*
X023070Y014432D02*
X022973Y014432D01*
X023000Y014273D02*
X023070Y014273D01*
X023070Y014115D02*
X022971Y014115D01*
X022872Y013956D02*
X023070Y013956D01*
X023070Y013798D02*
X010697Y013798D01*
X010697Y013639D02*
X021973Y013639D01*
X021999Y013665D02*
X021870Y013536D01*
X021800Y013366D01*
X021800Y013183D01*
X021870Y013014D01*
X021999Y012885D01*
X022168Y012815D01*
X022631Y012815D01*
X022801Y012885D01*
X022930Y013014D01*
X023000Y013183D01*
X023000Y013366D01*
X022930Y013536D01*
X022801Y013665D01*
X022631Y013735D01*
X022168Y013735D01*
X021999Y013665D01*
X021847Y013481D02*
X010697Y013481D01*
X010669Y013322D02*
X021800Y013322D01*
X021808Y013164D02*
X010691Y013164D01*
X010697Y013005D02*
X021879Y013005D01*
X022092Y012847D02*
X010697Y012847D01*
X010683Y012688D02*
X023070Y012688D01*
X023070Y012847D02*
X022708Y012847D01*
X022921Y013005D02*
X023070Y013005D01*
X023070Y013164D02*
X022992Y013164D01*
X023000Y013322D02*
X023070Y013322D01*
X023070Y013481D02*
X022953Y013481D01*
X023070Y013639D02*
X022827Y013639D01*
X021928Y013956D02*
X010610Y013956D01*
X010300Y013610D02*
X008973Y013610D01*
X009000Y013586D01*
X008339Y013486D01*
X008078Y014115D02*
X021829Y014115D01*
X021800Y014273D02*
X017607Y014273D01*
X017623Y014282D02*
X017575Y014254D01*
X017521Y014240D01*
X017287Y014240D01*
X017287Y014698D01*
X017287Y014852D01*
X017705Y014852D01*
X017705Y015126D01*
X017690Y015180D01*
X017663Y015228D01*
X017623Y015268D01*
X017575Y015296D01*
X017521Y015310D01*
X017287Y015310D01*
X017287Y014852D01*
X017132Y014852D01*
X017132Y014698D01*
X016715Y014698D01*
X016715Y014424D01*
X016729Y014370D01*
X016757Y014322D01*
X016797Y014282D01*
X016845Y014254D01*
X016899Y014240D01*
X017132Y014240D01*
X017132Y014698D01*
X017287Y014698D01*
X017705Y014698D01*
X017705Y014424D01*
X017690Y014370D01*
X017663Y014322D01*
X017623Y014282D01*
X017705Y014432D02*
X021827Y014432D01*
X021924Y014590D02*
X017705Y014590D01*
X017705Y014907D02*
X021977Y014907D01*
X021849Y015066D02*
X020181Y015066D01*
X020181Y015224D02*
X021800Y015224D01*
X021807Y015383D02*
X020181Y015383D01*
X020181Y015541D02*
X021875Y015541D01*
X022083Y015700D02*
X020067Y015700D01*
X020025Y015858D02*
X022065Y015858D01*
X021869Y016017D02*
X020025Y016017D01*
X020025Y016175D02*
X021804Y016175D01*
X021800Y016334D02*
X020025Y016334D01*
X020025Y016492D02*
X021852Y016492D01*
X022883Y016968D02*
X023070Y016968D01*
X023070Y017126D02*
X022976Y017126D01*
X023000Y017285D02*
X023070Y017285D01*
X023070Y017443D02*
X022968Y017443D01*
X021966Y017919D02*
X020234Y017919D01*
X019736Y017919D02*
X019234Y017919D01*
X019167Y017985D02*
X018803Y017985D01*
X018545Y017727D01*
X018545Y017363D01*
X018803Y017105D01*
X019167Y017105D01*
X019425Y017363D01*
X019425Y017727D01*
X019167Y017985D01*
X019392Y017760D02*
X019578Y017760D01*
X019545Y017602D02*
X019425Y017602D01*
X019425Y017443D02*
X019545Y017443D01*
X019545Y017285D02*
X019347Y017285D01*
X019188Y017126D02*
X019545Y017126D01*
X019545Y016968D02*
X015282Y016968D01*
X015190Y016809D02*
X019545Y016809D01*
X019545Y016651D02*
X015190Y016651D01*
X015190Y016492D02*
X019545Y016492D01*
X019545Y016334D02*
X015190Y016334D01*
X015190Y016175D02*
X019545Y016175D01*
X019545Y016017D02*
X015190Y016017D01*
X015327Y015858D02*
X019545Y015858D01*
X019503Y015700D02*
X019347Y015700D01*
X019134Y015700D02*
X019097Y015700D01*
X019097Y015702D02*
X018892Y015702D01*
X018841Y015688D01*
X018796Y015662D01*
X018759Y015625D01*
X018732Y015579D01*
X018719Y015528D01*
X018719Y015343D01*
X019097Y015343D01*
X019097Y015702D01*
X019097Y015541D02*
X019134Y015541D01*
X019134Y015383D02*
X019097Y015383D01*
X019097Y015224D02*
X019134Y015224D01*
X019134Y015066D02*
X019097Y015066D01*
X018735Y015066D02*
X017705Y015066D01*
X017665Y015224D02*
X018719Y015224D01*
X018719Y015383D02*
X015327Y015383D01*
X015327Y015541D02*
X018722Y015541D01*
X018884Y015700D02*
X015327Y015700D01*
X015327Y015224D02*
X015633Y015224D01*
X016547Y015224D02*
X016755Y015224D01*
X016757Y015228D02*
X016729Y015180D01*
X016715Y015126D01*
X016715Y014852D01*
X017132Y014852D01*
X017132Y015310D01*
X016899Y015310D01*
X016845Y015296D01*
X016797Y015268D01*
X016757Y015228D01*
X016715Y015066D02*
X016585Y015066D01*
X016585Y014907D02*
X016715Y014907D01*
X016585Y014749D02*
X017132Y014749D01*
X017287Y014749D02*
X023070Y014749D01*
X021844Y018077D02*
X013838Y018077D01*
X013885Y018124D02*
X013601Y017840D01*
X013199Y017840D01*
X012915Y018124D01*
X012915Y018526D01*
X013199Y018810D01*
X013601Y018810D01*
X013885Y018526D01*
X013885Y018124D01*
X013885Y018236D02*
X021800Y018236D01*
X021811Y018394D02*
X013885Y018394D01*
X013859Y018553D02*
X021887Y018553D01*
X022111Y018711D02*
X013700Y018711D01*
X013414Y018870D02*
X013386Y018870D01*
X013386Y018840D02*
X013386Y019311D01*
X012915Y019311D01*
X012915Y019124D01*
X013199Y018840D01*
X013386Y018840D01*
X013386Y019028D02*
X013414Y019028D01*
X013414Y019187D02*
X013386Y019187D01*
X013386Y019345D02*
X013414Y019345D01*
X013414Y019504D02*
X013386Y019504D01*
X013386Y019662D02*
X013414Y019662D01*
X013051Y019662D02*
X012749Y019662D01*
X012885Y019526D02*
X012601Y019810D01*
X012199Y019810D01*
X011915Y019526D01*
X011915Y019124D01*
X012199Y018840D01*
X012601Y018840D01*
X012885Y019124D01*
X012885Y019526D01*
X012885Y019504D02*
X012915Y019504D01*
X012915Y019345D02*
X012885Y019345D01*
X012885Y019187D02*
X012915Y019187D01*
X013011Y019028D02*
X012789Y019028D01*
X012631Y018870D02*
X013169Y018870D01*
X013100Y018711D02*
X012700Y018711D01*
X012601Y018810D02*
X012885Y018526D01*
X012885Y018124D01*
X012601Y017840D01*
X012199Y017840D01*
X011915Y018124D01*
X011915Y018526D01*
X012199Y018810D01*
X012601Y018810D01*
X012859Y018553D02*
X012941Y018553D01*
X012915Y018394D02*
X012885Y018394D01*
X012885Y018236D02*
X012915Y018236D01*
X012962Y018077D02*
X012838Y018077D01*
X012680Y017919D02*
X013120Y017919D01*
X013680Y017919D02*
X015986Y017919D01*
X016484Y017919D02*
X016986Y017919D01*
X017053Y017985D02*
X016795Y017727D01*
X016795Y017363D01*
X017053Y017105D01*
X017417Y017105D01*
X017675Y017363D01*
X017675Y017727D01*
X017417Y017985D01*
X017053Y017985D01*
X016828Y017760D02*
X016642Y017760D01*
X016675Y017602D02*
X016795Y017602D01*
X016795Y017443D02*
X016675Y017443D01*
X016597Y017285D02*
X016873Y017285D01*
X017032Y017126D02*
X016438Y017126D01*
X016032Y017126D02*
X015440Y017126D01*
X015599Y017285D02*
X015873Y017285D01*
X015412Y017760D02*
X009860Y017760D01*
X009860Y017602D02*
X015237Y017602D01*
X015079Y017443D02*
X009860Y017443D01*
X009860Y017285D02*
X014920Y017285D01*
X014762Y017126D02*
X009860Y017126D01*
X009860Y016968D02*
X014710Y016968D01*
X014710Y016809D02*
X009860Y016809D01*
X009860Y016651D02*
X014710Y016651D01*
X014710Y016492D02*
X009860Y016492D01*
X009860Y016334D02*
X014710Y016334D01*
X014710Y016175D02*
X009860Y016175D01*
X009860Y016017D02*
X014710Y016017D01*
X014573Y015858D02*
X009854Y015858D01*
X009747Y015705D02*
X009747Y015705D01*
X009742Y015700D02*
X014573Y015700D01*
X014573Y015541D02*
X009584Y015541D01*
X009300Y015575D02*
X009250Y015575D01*
X009600Y015925D01*
X009600Y017775D01*
X009435Y017940D01*
X009435Y018735D01*
X009875Y018711D02*
X011100Y018711D01*
X011199Y018810D02*
X010915Y018526D01*
X010915Y018124D01*
X011199Y017840D01*
X011601Y017840D01*
X011885Y018124D01*
X011885Y018526D01*
X011601Y018810D01*
X011199Y018810D01*
X011169Y018870D02*
X009875Y018870D01*
X009844Y019028D02*
X011011Y019028D01*
X011631Y018870D02*
X012169Y018870D01*
X012100Y018711D02*
X011700Y018711D01*
X011859Y018553D02*
X011941Y018553D01*
X011915Y018394D02*
X011885Y018394D01*
X011885Y018236D02*
X011915Y018236D01*
X011962Y018077D02*
X011838Y018077D01*
X011680Y017919D02*
X012120Y017919D01*
X011120Y017919D02*
X009822Y017919D01*
X009695Y018077D02*
X010962Y018077D01*
X010915Y018236D02*
X009695Y018236D01*
X009823Y018394D02*
X010915Y018394D01*
X010941Y018553D02*
X009875Y018553D01*
X008719Y019345D02*
X007148Y019345D01*
X007165Y019187D02*
X007103Y019187D01*
X007057Y019028D02*
X006953Y019028D01*
X007128Y019504D02*
X008839Y019504D01*
X009045Y019662D02*
X007026Y019662D01*
X006474Y019662D02*
X006340Y019662D01*
X004895Y018870D02*
X004598Y018870D01*
X004542Y018711D02*
X004784Y018711D01*
X004784Y018553D02*
X004341Y018553D01*
X004059Y018553D02*
X003913Y018553D01*
X003930Y018536D02*
X003801Y018665D01*
X003631Y018735D01*
X003168Y018735D01*
X002999Y018665D01*
X002870Y018536D01*
X002800Y018366D01*
X002800Y018183D01*
X002870Y018014D01*
X002999Y017885D01*
X003168Y017815D01*
X003631Y017815D01*
X003801Y017885D01*
X003930Y018014D01*
X004000Y018183D01*
X004000Y018366D01*
X003930Y018536D01*
X003989Y018394D02*
X004784Y018394D01*
X004784Y018236D02*
X004000Y018236D01*
X003956Y018077D02*
X004811Y018077D01*
X004803Y017919D02*
X003834Y017919D01*
X002966Y017919D02*
X002730Y017919D01*
X002730Y018077D02*
X002844Y018077D01*
X002800Y018236D02*
X002730Y018236D01*
X002730Y018394D02*
X002811Y018394D01*
X002744Y018553D02*
X002887Y018553D01*
X002903Y018711D02*
X003111Y018711D01*
X003061Y018870D02*
X003802Y018870D01*
X003812Y019028D02*
X003220Y019028D01*
X003689Y018711D02*
X003858Y018711D01*
X005589Y018077D02*
X005611Y018077D01*
X005597Y017919D02*
X005603Y017919D01*
X005597Y017760D02*
X005603Y017760D01*
X005597Y017602D02*
X005603Y017602D01*
X005646Y017443D02*
X005554Y017443D01*
X005597Y017285D02*
X005603Y017285D01*
X005603Y017122D02*
X005603Y016937D01*
X005617Y016886D01*
X005643Y016841D01*
X005681Y016803D01*
X005726Y016777D01*
X005777Y016764D01*
X005982Y016764D01*
X005982Y017122D01*
X005603Y017122D01*
X005597Y016968D02*
X005603Y016968D01*
X005675Y016809D02*
X005525Y016809D01*
X005218Y016809D02*
X005182Y016809D01*
X005182Y016968D02*
X005218Y016968D01*
X005218Y017126D02*
X005982Y017126D01*
X005982Y016968D02*
X006018Y016968D01*
X006018Y016809D02*
X005982Y016809D01*
X004875Y016809D02*
X002730Y016809D01*
X003400Y016275D02*
X003650Y016275D01*
X004350Y015575D01*
X009250Y015575D01*
X009165Y015858D02*
X004435Y015858D01*
X004276Y016017D02*
X009324Y016017D01*
X009340Y016175D02*
X004118Y016175D01*
X004000Y016334D02*
X009340Y016334D01*
X008450Y016740D02*
X007850Y016740D01*
X004803Y016968D02*
X003883Y016968D01*
X003858Y015700D02*
X003717Y015700D01*
X003925Y015541D02*
X004016Y015541D01*
X002875Y015541D02*
X002730Y015541D01*
X002730Y015383D02*
X002807Y015383D01*
X002800Y015224D02*
X002730Y015224D01*
X002730Y015066D02*
X002849Y015066D01*
X002730Y014907D02*
X002977Y014907D01*
X004011Y014432D02*
X004839Y014432D01*
X004680Y014273D02*
X004170Y014273D01*
X003735Y013610D02*
X003400Y013275D01*
X003735Y013610D02*
X005200Y013610D01*
X004831Y013322D02*
X004000Y013322D01*
X003992Y013164D02*
X004809Y013164D01*
X004803Y013005D02*
X003921Y013005D01*
X003708Y012847D02*
X004803Y012847D01*
X004803Y012922D02*
X004803Y012737D01*
X004817Y012686D01*
X004843Y012641D01*
X004881Y012603D01*
X004926Y012577D01*
X004977Y012564D01*
X005182Y012564D01*
X005182Y012922D01*
X004803Y012922D01*
X004817Y012688D02*
X003745Y012688D01*
X003092Y012847D02*
X002730Y012847D01*
X002730Y013005D02*
X002879Y013005D01*
X002808Y013164D02*
X002730Y013164D01*
X002730Y013322D02*
X002800Y013322D01*
X002847Y013481D02*
X002730Y013481D01*
X002730Y013639D02*
X002973Y013639D01*
X003055Y012688D02*
X002730Y012688D01*
X002730Y012530D02*
X002868Y012530D01*
X002802Y012371D02*
X002730Y012371D01*
X002730Y012213D02*
X002800Y012213D01*
X002854Y012054D02*
X002730Y012054D01*
X002730Y011896D02*
X002989Y011896D01*
X002730Y011737D02*
X005827Y011737D01*
X006570Y011737D02*
X006730Y011737D01*
X006730Y011579D02*
X006570Y011579D01*
X006570Y011420D02*
X006730Y011420D01*
X005218Y012688D02*
X005182Y012688D01*
X005182Y012847D02*
X005218Y012847D01*
X002913Y011579D02*
X002730Y011579D01*
X002730Y011420D02*
X002822Y011420D01*
X002800Y011262D02*
X002730Y011262D01*
X002730Y011103D02*
X002833Y011103D01*
X002730Y010945D02*
X002940Y010945D01*
X009875Y013164D02*
X009909Y013164D01*
X009908Y013322D02*
X009931Y013322D01*
X010282Y012847D02*
X010318Y012847D01*
X010318Y012688D02*
X010282Y012688D01*
X009990Y013956D02*
X009908Y013956D01*
X011569Y015224D02*
X014573Y015224D01*
X014573Y015383D02*
X011410Y015383D01*
X011727Y015066D02*
X012549Y015066D01*
X014873Y014273D02*
X015027Y014273D01*
X015621Y014273D02*
X015686Y014273D01*
X016494Y014273D02*
X016813Y014273D01*
X016715Y014432D02*
X016585Y014432D01*
X016585Y014590D02*
X016715Y014590D01*
X017132Y014590D02*
X017287Y014590D01*
X017287Y014432D02*
X017132Y014432D01*
X017132Y014273D02*
X017287Y014273D01*
X017287Y014907D02*
X017132Y014907D01*
X017132Y015066D02*
X017287Y015066D01*
X017287Y015224D02*
X017132Y015224D01*
X017438Y017126D02*
X018782Y017126D01*
X018623Y017285D02*
X017597Y017285D01*
X017675Y017443D02*
X018545Y017443D01*
X018545Y017602D02*
X017675Y017602D01*
X017642Y017760D02*
X018578Y017760D01*
X018736Y017919D02*
X017484Y017919D01*
X012011Y019028D02*
X011789Y019028D01*
X011885Y019187D02*
X011915Y019187D01*
X011915Y019345D02*
X011885Y019345D01*
X011885Y019504D02*
X011915Y019504D01*
X012051Y019662D02*
X011749Y019662D01*
D21*
X006750Y019375D03*
X004200Y018925D03*
M02*
