%
M48
M72
T01C0.0236
T02C0.0320
T03C0.0335
T04C0.0374
%
T01
X4200Y18925
X6750Y19375
T02
X7466Y18735
X8450Y18735
X9435Y18735
X16235Y17545
X17235Y17545
X18985Y17545
X19985Y17545
T03
X3400Y11275
X3400Y12275
X3400Y13275
X3400Y14275
X3400Y15275
X3400Y16275
X3400Y17275
X3400Y18275
X22400Y18275
X22400Y17275
X22400Y16275
X22400Y15275
X22400Y14275
X22400Y13275
T04
X13400Y18325
X12400Y18325
X11400Y18325
X11400Y19325
X12400Y19325
X13400Y19325
M30
